<svg width="90" height="24" viewBox="0 0 90 24" fill="none" xmlns="http://www.w3.org/2000/svg">
<g clip-path="url(#clip0_535_173)">
<path d="M32.192 17.128C31.8933 17.128 31.664 17.0427 31.504 16.872C31.344 16.7013 31.264 16.4667 31.264 16.168V6.552C31.264 6.24267 31.3493 6.008 31.52 5.848C31.6907 5.67733 31.9253 5.592 32.224 5.592C32.4907 5.592 32.6987 5.64533 32.848 5.752C33.008 5.848 33.152 6.01867 33.28 6.264L37.232 13.576H36.72L40.672 6.264C40.8 6.01867 40.9387 5.848 41.088 5.752C41.2373 5.64533 41.4453 5.592 41.712 5.592C42.0107 5.592 42.24 5.67733 42.4 5.848C42.56 6.008 42.64 6.24267 42.64 6.552V16.168C42.64 16.4667 42.56 16.7013 42.4 16.872C42.2507 17.0427 42.0213 17.128 41.712 17.128C41.4133 17.128 41.184 17.0427 41.024 16.872C40.864 16.7013 40.784 16.4667 40.784 16.168V8.76H41.136L37.776 14.888C37.6693 15.0693 37.5573 15.2027 37.44 15.288C37.3227 15.3733 37.1627 15.416 36.96 15.416C36.7573 15.416 36.592 15.3733 36.464 15.288C36.336 15.192 36.224 15.0587 36.128 14.888L32.736 8.744H33.12V16.168C33.12 16.4667 33.04 16.7013 32.88 16.872C32.7307 17.0427 32.5013 17.128 32.192 17.128ZM46.9146 20.008C46.68 20.008 46.488 19.944 46.3386 19.816C46.1893 19.6987 46.0986 19.5387 46.0666 19.336C46.0453 19.1333 46.0826 18.92 46.1786 18.696L47.2666 16.28V17.112L44.3546 10.376C44.2586 10.1413 44.2266 9.92267 44.2586 9.72C44.2906 9.51733 44.3866 9.35733 44.5466 9.24C44.7173 9.112 44.9466 9.048 45.2346 9.048C45.48 9.048 45.6773 9.10667 45.8266 9.224C45.976 9.33067 46.1093 9.53867 46.2266 9.848L48.3866 15.24H47.9066L50.1146 9.832C50.232 9.53333 50.3706 9.33067 50.5306 9.224C50.6906 9.10667 50.904 9.048 51.1706 9.048C51.4053 9.048 51.592 9.112 51.7306 9.24C51.8693 9.35733 51.9546 9.51733 51.9866 9.72C52.0186 9.912 51.9813 10.1253 51.8746 10.36L47.9866 19.24C47.848 19.5387 47.6986 19.7413 47.5386 19.848C47.3786 19.9547 47.1706 20.008 46.9146 20.008ZM58.9123 17.128C58.5816 17.128 58.3256 17.0373 58.1443 16.856C57.9736 16.664 57.8883 16.4027 57.8883 16.072V6.76C57.8883 6.41867 57.9789 6.16267 58.1603 5.992C58.3416 5.81067 58.5976 5.72 58.9283 5.72H62.7843C64.0216 5.72 64.9763 6.02933 65.6483 6.648C66.3203 7.26667 66.6562 8.13067 66.6562 9.24C66.6562 10.3493 66.3203 11.2187 65.6483 11.848C64.9763 12.4667 64.0216 12.776 62.7843 12.776H59.9363V16.072C59.9363 16.4027 59.8509 16.664 59.6803 16.856C59.5096 17.0373 59.2536 17.128 58.9123 17.128ZM59.9363 11.16H62.4643C63.1896 11.16 63.7389 11 64.1123 10.68C64.4856 10.3493 64.6723 9.86933 64.6723 9.24C64.6723 8.61067 64.4856 8.136 64.1123 7.816C63.7389 7.496 63.1896 7.336 62.4643 7.336H59.9363V11.16ZM71.5991 17.16C70.7138 17.16 69.9511 16.9947 69.3111 16.664C68.6711 16.3333 68.1751 15.864 67.8231 15.256C67.4818 14.648 67.3111 13.928 67.3111 13.096C67.3111 12.2853 67.4765 11.576 67.8071 10.968C68.1485 10.36 68.6125 9.88533 69.1991 9.544C69.7965 9.192 70.4738 9.016 71.2311 9.016C71.7858 9.016 72.2818 9.10667 72.7191 9.288C73.1671 9.46933 73.5458 9.73067 73.8551 10.072C74.1751 10.4133 74.4151 10.8293 74.5751 11.32C74.7458 11.8 74.8311 12.344 74.8311 12.952C74.8311 13.144 74.7618 13.2933 74.6231 13.4C74.4951 13.496 74.3085 13.544 74.0631 13.544H68.9271V12.392H73.4231L73.1671 12.632C73.1671 12.1413 73.0925 11.7307 72.9431 11.4C72.8045 11.0693 72.5965 10.8187 72.3191 10.648C72.0525 10.4667 71.7165 10.376 71.3111 10.376C70.8631 10.376 70.4791 10.4827 70.1591 10.696C69.8498 10.8987 69.6098 11.192 69.4391 11.576C69.2791 11.9493 69.1991 12.3973 69.1991 12.92V13.032C69.1991 13.9067 69.4018 14.5627 69.8071 15C70.2231 15.4267 70.8311 15.64 71.6311 15.64C71.9085 15.64 72.2178 15.608 72.5591 15.544C72.9111 15.4693 73.2418 15.3467 73.5511 15.176C73.7751 15.048 73.9725 14.9947 74.1431 15.016C74.3138 15.0267 74.4471 15.0853 74.5431 15.192C74.6498 15.2987 74.7138 15.432 74.7351 15.592C74.7565 15.7413 74.7245 15.896 74.6391 16.056C74.5645 16.216 74.4311 16.3547 74.2391 16.472C73.8658 16.7067 73.4338 16.8827 72.9431 17C72.4631 17.1067 72.0151 17.16 71.5991 17.16ZM79.9678 17.16C79.2744 17.16 78.6931 17.0427 78.2238 16.808C77.7651 16.5733 77.4238 16.232 77.1998 15.784C76.9758 15.3253 76.8638 14.76 76.8638 14.088V10.68H76.0318C75.7758 10.68 75.5784 10.616 75.4398 10.488C75.3011 10.3493 75.2317 10.1627 75.2317 9.928C75.2317 9.68267 75.3011 9.496 75.4398 9.368C75.5784 9.24 75.7758 9.176 76.0318 9.176H76.8638V7.72C76.8638 7.38933 76.9491 7.13867 77.1198 6.968C77.3011 6.79733 77.5518 6.712 77.8718 6.712C78.1918 6.712 78.4371 6.79733 78.6078 6.968C78.7784 7.13867 78.8638 7.38933 78.8638 7.72V9.176H80.5598C80.8158 9.176 81.0131 9.24 81.1518 9.368C81.2904 9.496 81.3598 9.68267 81.3598 9.928C81.3598 10.1627 81.2904 10.3493 81.1518 10.488C81.0131 10.616 80.8158 10.68 80.5598 10.68H78.8638V13.976C78.8638 14.488 78.9758 14.872 79.1998 15.128C79.4238 15.384 79.7864 15.512 80.2878 15.512C80.4691 15.512 80.6291 15.496 80.7678 15.464C80.9064 15.432 81.0291 15.4107 81.1358 15.4C81.2638 15.3893 81.3704 15.432 81.4558 15.528C81.5411 15.6133 81.5838 15.7947 81.5838 16.072C81.5838 16.2853 81.5464 16.4773 81.4718 16.648C81.4078 16.808 81.2851 16.92 81.1038 16.984C80.9651 17.0267 80.7838 17.064 80.5598 17.096C80.3358 17.1387 80.1384 17.16 79.9678 17.16ZM85.3884 17.16C84.9297 17.16 84.4444 17.112 83.9324 17.016C83.4204 16.92 82.9617 16.7547 82.5564 16.52C82.3857 16.4133 82.263 16.2907 82.1884 16.152C82.1244 16.0027 82.0977 15.8587 82.1084 15.72C82.1297 15.5707 82.183 15.4427 82.2684 15.336C82.3644 15.2293 82.4817 15.16 82.6204 15.128C82.7697 15.096 82.9297 15.1227 83.1004 15.208C83.527 15.4107 83.927 15.5547 84.3004 15.64C84.6737 15.7147 85.0417 15.752 85.4044 15.752C85.9164 15.752 86.295 15.6667 86.5404 15.496C86.7964 15.3147 86.9244 15.08 86.9244 14.792C86.9244 14.5467 86.839 14.36 86.6684 14.232C86.5084 14.0933 86.263 13.992 85.9324 13.928L84.3324 13.624C83.671 13.496 83.1644 13.256 82.8124 12.904C82.471 12.5413 82.3004 12.0773 82.3004 11.512C82.3004 11 82.439 10.5573 82.7164 10.184C83.0044 9.81067 83.399 9.52267 83.9004 9.32C84.4017 9.11733 84.9777 9.016 85.6284 9.016C86.0977 9.016 86.535 9.06933 86.9404 9.176C87.3564 9.272 87.7564 9.42667 88.1404 9.64C88.3004 9.72533 88.407 9.83733 88.4604 9.976C88.5244 10.1147 88.5404 10.2587 88.5084 10.408C88.4764 10.5467 88.4124 10.6747 88.3164 10.792C88.2204 10.8987 88.0977 10.968 87.9484 11C87.8097 11.0213 87.6497 10.9893 87.4684 10.904C87.1377 10.7333 86.8177 10.6107 86.5084 10.536C86.2097 10.4613 85.9217 10.424 85.6444 10.424C85.1217 10.424 84.7324 10.5147 84.4764 10.696C84.231 10.8773 84.1084 11.1173 84.1084 11.416C84.1084 11.64 84.183 11.8267 84.3324 11.976C84.4817 12.1253 84.711 12.2267 85.0204 12.28L86.6204 12.584C87.3137 12.712 87.8364 12.9467 88.1884 13.288C88.551 13.6293 88.7324 14.088 88.7324 14.664C88.7324 15.4427 88.4284 16.056 87.8204 16.504C87.2124 16.9413 86.4017 17.16 85.3884 17.16Z" fill="#1B1B1B"/>
<path fill-rule="evenodd" clip-rule="evenodd" d="M7.96687 0C9.86486 0 11.4069 2.31243 11.4069 5.08734C11.4069 7.86229 9.86486 10.1747 7.96687 10.1747C6.06893 10.1747 4.52685 7.86229 4.52685 5.08734C4.64547 2.31243 6.06893 0 7.96687 0ZM12.3559 12.3715C16.3891 12.3715 16.8635 14.9152 20.1849 19.4244C21.8456 22.6618 19.7105 24.6274 15.9146 23.818C14.2539 23.0087 13.0676 22.6618 11.8814 22.6618C9.74615 22.7774 9.27172 24.0493 6.89928 23.9337C5.00133 23.9337 4.17098 23.1243 4.05236 21.9681C3.81512 20.6963 4.40823 20.0025 5.00133 18.9619C7.25514 15.0308 9.62756 11.909 12.3559 12.3715ZM1.44269 7.63099C0.0192232 8.20909 -0.455262 10.2903 0.493716 12.3715C1.44269 14.4527 3.22201 15.7245 4.64547 15.1464C6.06893 14.5683 6.54341 12.4871 5.59444 10.4059C4.64547 8.32479 2.86615 7.05289 1.44269 7.63099ZM22.5574 7.63099C23.9808 8.20909 24.4553 10.2903 23.5063 12.3715C22.676 14.4527 20.778 15.7245 19.3546 15.1464C17.9311 14.5683 17.4566 12.4871 18.4056 10.4059C19.3546 8.32479 21.1339 7.05289 22.5574 7.63099ZM15.9146 0C17.8125 0 19.3546 2.31243 19.3546 5.08734C19.3546 7.86229 17.8125 10.1747 15.9146 10.1747C14.0166 10.1747 12.4745 7.86229 12.4745 5.08734C12.4745 2.31243 14.0166 0 15.9146 0Z" fill="#40916C"/>
</g>
<defs>
<clipPath id="clip0_535_173">
<rect width="90" height="24" fill="white"/>
</clipPath>
</defs>
</svg>
